<mxfile host="Electron" modified="2024-05-05T20:14:03.328Z" agent="Mozilla/5.0 (Windows NT 10.0; Win64; x64) AppleWebKit/537.36 (KHTML, like Gecko) draw.io/24.2.5 Chrome/120.0.6099.109 Electron/28.1.0 Safari/537.36" etag="duhxJdzSw4eqfEbkqajN" version="24.2.5" type="device">
  <diagram id="C5RBs43oDa-KdzZeNtuy" name="Page-1">
    <mxGraphModel dx="794" dy="519" grid="1" gridSize="10" guides="1" tooltips="1" connect="1" arrows="1" fold="1" page="1" pageScale="1" pageWidth="827" pageHeight="1169" math="0" shadow="0">
      <root>
        <mxCell id="WIyWlLk6GJQsqaUBKTNV-0" />
        <mxCell id="WIyWlLk6GJQsqaUBKTNV-1" parent="WIyWlLk6GJQsqaUBKTNV-0" />
        <mxCell id="D2bjokipILLCfBZqnvo0-0" value="Module" style="swimlane;fontStyle=1;align=center;verticalAlign=top;childLayout=stackLayout;horizontal=1;startSize=26;horizontalStack=0;resizeParent=1;resizeParentMax=0;resizeLast=0;collapsible=1;marginBottom=0;whiteSpace=wrap;html=1;" parent="WIyWlLk6GJQsqaUBKTNV-1" vertex="1">
          <mxGeometry x="181.5" y="40" width="250" height="245" as="geometry" />
        </mxCell>
        <mxCell id="D2bjokipILLCfBZqnvo0-1" value="- moduleID: String&lt;div&gt;&lt;div&gt;~ questionBanks: ArrayList&amp;lt;QuestionBank&amp;gt;&lt;/div&gt;&lt;/div&gt;&lt;div&gt;- fileReader: FileReader&lt;/div&gt;&lt;div&gt;- scanner: Scanner&lt;/div&gt;" style="text;strokeColor=none;fillColor=none;align=left;verticalAlign=top;spacingLeft=4;spacingRight=4;overflow=hidden;rotatable=0;points=[[0,0.5],[1,0.5]];portConstraint=eastwest;whiteSpace=wrap;html=1;" parent="D2bjokipILLCfBZqnvo0-0" vertex="1">
          <mxGeometry y="26" width="250" height="74" as="geometry" />
        </mxCell>
        <mxCell id="D2bjokipILLCfBZqnvo0-2" value="" style="line;strokeWidth=1;fillColor=none;align=left;verticalAlign=middle;spacingTop=-1;spacingLeft=3;spacingRight=3;rotatable=0;labelPosition=right;points=[];portConstraint=eastwest;strokeColor=inherit;" parent="D2bjokipILLCfBZqnvo0-0" vertex="1">
          <mxGeometry y="100" width="250" height="8" as="geometry" />
        </mxCell>
        <mxCell id="D2bjokipILLCfBZqnvo0-3" value="&lt;div&gt;+ Module(startModuleID: String)&lt;/div&gt;+ loadQuestionBank(questionBankID: String): void&lt;div&gt;+ removeQuestionBank(questionBankID: String, filename: String): void&lt;/div&gt;&lt;div&gt;+ writeQuestionBankToFile(filename: String, questionBankID: String&lt;/div&gt;&lt;div&gt;+ showQuestionBanks()&lt;/div&gt;" style="text;strokeColor=none;fillColor=none;align=left;verticalAlign=top;spacingLeft=4;spacingRight=4;overflow=hidden;rotatable=0;points=[[0,0.5],[1,0.5]];portConstraint=eastwest;whiteSpace=wrap;html=1;" parent="D2bjokipILLCfBZqnvo0-0" vertex="1">
          <mxGeometry y="108" width="250" height="137" as="geometry" />
        </mxCell>
        <mxCell id="D2bjokipILLCfBZqnvo0-4" value="QuestionBank" style="swimlane;fontStyle=1;align=center;verticalAlign=top;childLayout=stackLayout;horizontal=1;startSize=26;horizontalStack=0;resizeParent=1;resizeParentMax=0;resizeLast=0;collapsible=1;marginBottom=0;whiteSpace=wrap;html=1;" parent="WIyWlLk6GJQsqaUBKTNV-1" vertex="1">
          <mxGeometry x="520" y="40" width="228" height="233" as="geometry" />
        </mxCell>
        <mxCell id="D2bjokipILLCfBZqnvo0-5" value="- questionBankID: String&lt;div&gt;~ questions: ArrayList&amp;lt;String&amp;gt;&lt;/div&gt;&lt;div&gt;&amp;nbsp;- fileReader: FileReader&lt;/div&gt;&lt;div&gt;- scanner: Scanner&lt;/div&gt;&lt;div&gt;&lt;br&gt;&lt;/div&gt;" style="text;strokeColor=none;fillColor=none;align=left;verticalAlign=top;spacingLeft=4;spacingRight=4;overflow=hidden;rotatable=0;points=[[0,0.5],[1,0.5]];portConstraint=eastwest;whiteSpace=wrap;html=1;" parent="D2bjokipILLCfBZqnvo0-4" vertex="1">
          <mxGeometry y="26" width="228" height="74" as="geometry" />
        </mxCell>
        <mxCell id="D2bjokipILLCfBZqnvo0-6" value="" style="line;strokeWidth=1;fillColor=none;align=left;verticalAlign=middle;spacingTop=-1;spacingLeft=3;spacingRight=3;rotatable=0;labelPosition=right;points=[];portConstraint=eastwest;strokeColor=inherit;" parent="D2bjokipILLCfBZqnvo0-4" vertex="1">
          <mxGeometry y="100" width="228" height="8" as="geometry" />
        </mxCell>
        <mxCell id="D2bjokipILLCfBZqnvo0-7" value="&lt;div&gt;+ QuestionBank(startQuestionBankID: String)&lt;/div&gt;&lt;div&gt;+ removeQuestion(question: Question, filename: String): void&lt;/div&gt;&lt;div&gt;+ takeQuiz(totalQuestions: int):void&lt;/div&gt;&lt;div&gt;+ loadQuestions(filename: String): void&lt;/div&gt;&lt;div&gt;+ showAllQuestions(): void&lt;/div&gt;&lt;div&gt;&lt;br&gt;&lt;/div&gt;" style="text;strokeColor=none;fillColor=none;align=left;verticalAlign=top;spacingLeft=4;spacingRight=4;overflow=hidden;rotatable=0;points=[[0,0.5],[1,0.5]];portConstraint=eastwest;whiteSpace=wrap;html=1;" parent="D2bjokipILLCfBZqnvo0-4" vertex="1">
          <mxGeometry y="108" width="228" height="125" as="geometry" />
        </mxCell>
        <mxCell id="D2bjokipILLCfBZqnvo0-8" value="" style="rounded=0;orthogonalLoop=1;jettySize=auto;html=1;fontSize=12;" parent="WIyWlLk6GJQsqaUBKTNV-1" source="D2bjokipILLCfBZqnvo0-1" target="D2bjokipILLCfBZqnvo0-5" edge="1">
          <mxGeometry relative="1" as="geometry" />
        </mxCell>
        <mxCell id="q3p-BSSAToSTRyiaWnOy-12" value="1..*" style="edgeLabel;html=1;align=center;verticalAlign=middle;resizable=0;points=[];fontSize=12;" parent="D2bjokipILLCfBZqnvo0-8" vertex="1" connectable="0">
          <mxGeometry x="0.7994" y="2" relative="1" as="geometry">
            <mxPoint x="-9" y="-10" as="offset" />
          </mxGeometry>
        </mxCell>
        <mxCell id="q3p-BSSAToSTRyiaWnOy-13" value="1..1" style="edgeLabel;html=1;align=center;verticalAlign=middle;resizable=0;points=[];fontSize=12;" parent="D2bjokipILLCfBZqnvo0-8" vertex="1" connectable="0">
          <mxGeometry x="-0.801" y="2" relative="1" as="geometry">
            <mxPoint x="5" y="19" as="offset" />
          </mxGeometry>
        </mxCell>
        <mxCell id="D2bjokipILLCfBZqnvo0-9" value="&lt;div&gt;&lt;span style=&quot;font-weight: normal;&quot;&gt;&amp;lt;&amp;lt;abstract&amp;gt;&amp;gt;&lt;/span&gt;&lt;/div&gt;Question" style="swimlane;fontStyle=1;align=center;verticalAlign=top;childLayout=stackLayout;horizontal=1;startSize=40;horizontalStack=0;resizeParent=1;resizeParentMax=0;resizeLast=0;collapsible=1;marginBottom=0;whiteSpace=wrap;html=1;" parent="WIyWlLk6GJQsqaUBKTNV-1" vertex="1">
          <mxGeometry x="474" y="320" width="320" height="240" as="geometry" />
        </mxCell>
        <mxCell id="D2bjokipILLCfBZqnvo0-10" value="&lt;div&gt;~ questionText: String&lt;/div&gt;&lt;div&gt;~ questionBankID: String&lt;/div&gt;&lt;div&gt;~ userInp: Scanner&lt;/div&gt;" style="text;strokeColor=none;fillColor=none;align=left;verticalAlign=top;spacingLeft=4;spacingRight=4;overflow=hidden;rotatable=0;points=[[0,0.5],[1,0.5]];portConstraint=eastwest;whiteSpace=wrap;html=1;" parent="D2bjokipILLCfBZqnvo0-9" vertex="1">
          <mxGeometry y="40" width="320" height="60" as="geometry" />
        </mxCell>
        <mxCell id="D2bjokipILLCfBZqnvo0-11" value="" style="line;strokeWidth=1;fillColor=none;align=left;verticalAlign=middle;spacingTop=-1;spacingLeft=3;spacingRight=3;rotatable=0;labelPosition=right;points=[];portConstraint=eastwest;strokeColor=inherit;" parent="D2bjokipILLCfBZqnvo0-9" vertex="1">
          <mxGeometry y="100" width="320" height="8" as="geometry" />
        </mxCell>
        <mxCell id="D2bjokipILLCfBZqnvo0-12" value="+ Question(startQuestionBankID: String)&lt;div&gt;+ addQuestion(questionBankID: String)&lt;/div&gt;&lt;div&gt;+&amp;nbsp;&lt;span style=&quot;background-color: initial;&quot;&gt;setQuestionText(questionText: String)&lt;/span&gt;&lt;/div&gt;&lt;div&gt;+ getQuestionText(): String&lt;/div&gt;&lt;div&gt;+ showQuestion()&lt;span style=&quot;background-color: initial;&quot;&gt;: void&lt;/span&gt;&lt;/div&gt;&lt;div&gt;+ writeQuestionToFile(filename: String)&lt;span style=&quot;background-color: initial;&quot;&gt;: void&lt;/span&gt;&lt;/div&gt;&lt;div&gt;+ toString(): String&lt;/div&gt;&lt;div&gt;+ abstract checkAnswer(inpString: String, total: int): int&lt;/div&gt;&lt;div&gt;&lt;br&gt;&lt;/div&gt;&lt;div&gt;&lt;br&gt;&lt;/div&gt;" style="text;strokeColor=none;fillColor=none;align=left;verticalAlign=top;spacingLeft=4;spacingRight=4;overflow=hidden;rotatable=0;points=[[0,0.5],[1,0.5]];portConstraint=eastwest;whiteSpace=wrap;html=1;" parent="D2bjokipILLCfBZqnvo0-9" vertex="1">
          <mxGeometry y="108" width="320" height="132" as="geometry" />
        </mxCell>
        <mxCell id="D2bjokipILLCfBZqnvo0-13" value="SingleAnswer" style="swimlane;fontStyle=1;align=center;verticalAlign=top;childLayout=stackLayout;horizontal=1;startSize=26;horizontalStack=0;resizeParent=1;resizeParentMax=0;resizeLast=0;collapsible=1;marginBottom=0;whiteSpace=wrap;html=1;" parent="WIyWlLk6GJQsqaUBKTNV-1" vertex="1">
          <mxGeometry x="181.5" y="494" width="270" height="182" as="geometry" />
        </mxCell>
        <mxCell id="D2bjokipILLCfBZqnvo0-14" value="- posssibleAnswers: ArrayList&amp;lt;String&amp;gt;&lt;div&gt;- correctAnswerIndex: int&lt;/div&gt;" style="text;strokeColor=none;fillColor=none;align=left;verticalAlign=top;spacingLeft=4;spacingRight=4;overflow=hidden;rotatable=0;points=[[0,0.5],[1,0.5]];portConstraint=eastwest;whiteSpace=wrap;html=1;" parent="D2bjokipILLCfBZqnvo0-13" vertex="1">
          <mxGeometry y="26" width="270" height="44" as="geometry" />
        </mxCell>
        <mxCell id="D2bjokipILLCfBZqnvo0-15" value="" style="line;strokeWidth=1;fillColor=none;align=left;verticalAlign=middle;spacingTop=-1;spacingLeft=3;spacingRight=3;rotatable=0;labelPosition=right;points=[];portConstraint=eastwest;strokeColor=inherit;" parent="D2bjokipILLCfBZqnvo0-13" vertex="1">
          <mxGeometry y="70" width="270" height="8" as="geometry" />
        </mxCell>
        <mxCell id="D2bjokipILLCfBZqnvo0-16" value="&lt;div&gt;+ SingleAnswer(startQuestionBankID: String)&lt;/div&gt;+ addQuestion(): void&lt;div&gt;+ showQuestion()&lt;span style=&quot;background-color: initial;&quot;&gt;: void&lt;/span&gt;&lt;/div&gt;&lt;div&gt;+ checkAnswer(userAnswer: String, total:int): int&lt;/div&gt;" style="text;strokeColor=none;fillColor=none;align=left;verticalAlign=top;spacingLeft=4;spacingRight=4;overflow=hidden;rotatable=0;points=[[0,0.5],[1,0.5]];portConstraint=eastwest;whiteSpace=wrap;html=1;" parent="D2bjokipILLCfBZqnvo0-13" vertex="1">
          <mxGeometry y="78" width="270" height="104" as="geometry" />
        </mxCell>
        <mxCell id="D2bjokipILLCfBZqnvo0-17" value="FillBlanks" style="swimlane;fontStyle=1;align=center;verticalAlign=top;childLayout=stackLayout;horizontal=1;startSize=26;horizontalStack=0;resizeParent=1;resizeParentMax=0;resizeLast=0;collapsible=1;marginBottom=0;whiteSpace=wrap;html=1;" parent="WIyWlLk6GJQsqaUBKTNV-1" vertex="1">
          <mxGeometry x="530" y="590" width="270" height="173" as="geometry">
            <mxRectangle x="540" y="790" width="90" height="30" as="alternateBounds" />
          </mxGeometry>
        </mxCell>
        <mxCell id="D2bjokipILLCfBZqnvo0-18" value="&lt;div&gt;- blanks: String&lt;/div&gt;" style="text;strokeColor=none;fillColor=none;align=left;verticalAlign=top;spacingLeft=4;spacingRight=4;overflow=hidden;rotatable=0;points=[[0,0.5],[1,0.5]];portConstraint=eastwest;whiteSpace=wrap;html=1;" parent="D2bjokipILLCfBZqnvo0-17" vertex="1">
          <mxGeometry y="26" width="270" height="34" as="geometry" />
        </mxCell>
        <mxCell id="D2bjokipILLCfBZqnvo0-19" value="" style="line;strokeWidth=1;fillColor=none;align=left;verticalAlign=middle;spacingTop=-1;spacingLeft=3;spacingRight=3;rotatable=0;labelPosition=right;points=[];portConstraint=eastwest;strokeColor=inherit;" parent="D2bjokipILLCfBZqnvo0-17" vertex="1">
          <mxGeometry y="60" width="270" height="8" as="geometry" />
        </mxCell>
        <mxCell id="D2bjokipILLCfBZqnvo0-20" value="&lt;div&gt;+ FillBlanks(questionBankID: String)&lt;/div&gt;&lt;div&gt;+ setBlank(blank: String): void&lt;/div&gt;&lt;div&gt;+ showQuestion()&lt;span style=&quot;background-color: initial;&quot;&gt;: void&lt;/span&gt;&lt;/div&gt;&lt;div&gt;+ addQuestion()&lt;span style=&quot;background-color: initial;&quot;&gt;: void&lt;/span&gt;&lt;/div&gt;&lt;div&gt;+ checkAnswer(userAnswer: String, total: int): int&lt;/div&gt;" style="text;strokeColor=none;fillColor=none;align=left;verticalAlign=top;spacingLeft=4;spacingRight=4;overflow=hidden;rotatable=0;points=[[0,0.5],[1,0.5]];portConstraint=eastwest;whiteSpace=wrap;html=1;" parent="D2bjokipILLCfBZqnvo0-17" vertex="1">
          <mxGeometry y="68" width="270" height="105" as="geometry" />
        </mxCell>
        <mxCell id="gaf7ZaLwIS6UHUebbbbm-1" style="rounded=0;orthogonalLoop=1;jettySize=auto;html=1;entryX=0.472;entryY=1.019;entryDx=0;entryDy=0;dashed=1;dashPattern=8 8;entryPerimeter=0;" parent="WIyWlLk6GJQsqaUBKTNV-1" source="D2bjokipILLCfBZqnvo0-21" target="D2bjokipILLCfBZqnvo0-3" edge="1">
          <mxGeometry relative="1" as="geometry">
            <mxPoint x="80" y="300" as="targetPoint" />
          </mxGeometry>
        </mxCell>
        <mxCell id="D2bjokipILLCfBZqnvo0-21" value="Main" style="swimlane;fontStyle=1;align=center;verticalAlign=top;childLayout=stackLayout;horizontal=1;startSize=26;horizontalStack=0;resizeParent=1;resizeParentMax=0;resizeLast=0;collapsible=1;marginBottom=0;whiteSpace=wrap;html=1;" parent="WIyWlLk6GJQsqaUBKTNV-1" vertex="1">
          <mxGeometry x="181.5" y="320" width="250" height="148" as="geometry" />
        </mxCell>
        <mxCell id="D2bjokipILLCfBZqnvo0-22" value="&lt;div&gt;- modules: ArrayList&amp;lt;Module&amp;gt;&lt;/div&gt;&lt;div&gt;- userInP: Scanner&lt;/div&gt;" style="text;strokeColor=none;fillColor=none;align=left;verticalAlign=top;spacingLeft=4;spacingRight=4;overflow=hidden;rotatable=0;points=[[0,0.5],[1,0.5]];portConstraint=eastwest;whiteSpace=wrap;html=1;" parent="D2bjokipILLCfBZqnvo0-21" vertex="1">
          <mxGeometry y="26" width="250" height="44" as="geometry" />
        </mxCell>
        <mxCell id="D2bjokipILLCfBZqnvo0-23" value="" style="line;strokeWidth=1;fillColor=none;align=left;verticalAlign=middle;spacingTop=-1;spacingLeft=3;spacingRight=3;rotatable=0;labelPosition=right;points=[];portConstraint=eastwest;strokeColor=inherit;" parent="D2bjokipILLCfBZqnvo0-21" vertex="1">
          <mxGeometry y="70" width="250" height="8" as="geometry" />
        </mxCell>
        <mxCell id="D2bjokipILLCfBZqnvo0-24" value="+ runApp(): void&lt;div&gt;+ main(args: String[]): void&lt;/div&gt;&lt;div&gt;+ printMenu(): void&lt;/div&gt;&lt;div&gt;+ checkID(questionBankID: String): boolean&lt;/div&gt;" style="text;strokeColor=none;fillColor=none;align=left;verticalAlign=top;spacingLeft=4;spacingRight=4;overflow=hidden;rotatable=0;points=[[0,0.5],[1,0.5]];portConstraint=eastwest;whiteSpace=wrap;html=1;" parent="D2bjokipILLCfBZqnvo0-21" vertex="1">
          <mxGeometry y="78" width="250" height="70" as="geometry" />
        </mxCell>
        <mxCell id="Z39D8poa_tM1hzgPXQIC-2" value="" style="endArrow=classic;html=1;rounded=0;entryX=0.75;entryY=0;entryDx=0;entryDy=0;exitX=0.516;exitY=1;exitDx=0;exitDy=0;exitPerimeter=0;" parent="WIyWlLk6GJQsqaUBKTNV-1" source="D2bjokipILLCfBZqnvo0-7" target="D2bjokipILLCfBZqnvo0-9" edge="1">
          <mxGeometry width="50" height="50" relative="1" as="geometry">
            <mxPoint x="460" y="410" as="sourcePoint" />
            <mxPoint x="510" y="370" as="targetPoint" />
          </mxGeometry>
        </mxCell>
        <mxCell id="q3p-BSSAToSTRyiaWnOy-14" value="&lt;font style=&quot;font-size: 12px;&quot;&gt;1..1&lt;/font&gt;" style="edgeLabel;html=1;align=center;verticalAlign=middle;resizable=0;points=[];" parent="Z39D8poa_tM1hzgPXQIC-2" vertex="1" connectable="0">
          <mxGeometry x="-0.8184" y="3" relative="1" as="geometry">
            <mxPoint x="-16" y="15" as="offset" />
          </mxGeometry>
        </mxCell>
        <mxCell id="q3p-BSSAToSTRyiaWnOy-15" value="0..*" style="edgeLabel;html=1;align=center;verticalAlign=middle;resizable=0;points=[];fontSize=12;" parent="Z39D8poa_tM1hzgPXQIC-2" vertex="1" connectable="0">
          <mxGeometry x="0.6996" y="2" relative="1" as="geometry">
            <mxPoint x="27" y="-1" as="offset" />
          </mxGeometry>
        </mxCell>
        <mxCell id="q3p-BSSAToSTRyiaWnOy-5" value="" style="endArrow=block;endFill=0;endSize=12;html=1;rounded=0;exitX=1;exitY=0.5;exitDx=0;exitDy=0;entryX=0.281;entryY=1.007;entryDx=0;entryDy=0;entryPerimeter=0;" parent="WIyWlLk6GJQsqaUBKTNV-1" source="D2bjokipILLCfBZqnvo0-16" target="D2bjokipILLCfBZqnvo0-12" edge="1">
          <mxGeometry width="160" relative="1" as="geometry">
            <mxPoint x="110" y="660" as="sourcePoint" />
            <mxPoint x="370" y="634" as="targetPoint" />
          </mxGeometry>
        </mxCell>
        <mxCell id="q3p-BSSAToSTRyiaWnOy-7" value="" style="endArrow=block;endFill=0;endSize=12;html=1;rounded=0;exitX=0.5;exitY=0;exitDx=0;exitDy=0;entryX=0.595;entryY=1.007;entryDx=0;entryDy=0;entryPerimeter=0;" parent="WIyWlLk6GJQsqaUBKTNV-1" source="D2bjokipILLCfBZqnvo0-17" target="D2bjokipILLCfBZqnvo0-12" edge="1">
          <mxGeometry width="160" relative="1" as="geometry">
            <mxPoint x="300" y="740" as="sourcePoint" />
            <mxPoint x="680" y="620" as="targetPoint" />
          </mxGeometry>
        </mxCell>
        <mxCell id="q3p-BSSAToSTRyiaWnOy-9" style="rounded=0;orthogonalLoop=1;jettySize=auto;html=1;exitX=0.75;exitY=0;exitDx=0;exitDy=0;entryX=0.219;entryY=1.015;entryDx=0;entryDy=0;dashed=1;dashPattern=8 8;entryPerimeter=0;" parent="WIyWlLk6GJQsqaUBKTNV-1" source="D2bjokipILLCfBZqnvo0-21" target="D2bjokipILLCfBZqnvo0-7" edge="1">
          <mxGeometry relative="1" as="geometry" />
        </mxCell>
        <mxCell id="q3p-BSSAToSTRyiaWnOy-10" style="rounded=0;orthogonalLoop=1;jettySize=auto;html=1;entryX=0;entryY=0.5;entryDx=0;entryDy=0;exitX=1;exitY=0.5;exitDx=0;exitDy=0;dashed=1;dashPattern=8 8;" parent="WIyWlLk6GJQsqaUBKTNV-1" source="D2bjokipILLCfBZqnvo0-22" target="D2bjokipILLCfBZqnvo0-10" edge="1">
          <mxGeometry relative="1" as="geometry" />
        </mxCell>
      </root>
    </mxGraphModel>
  </diagram>
</mxfile>
